<svg viewBox="0 0 129 32" fill="none" xmlns="http://www.w3.org/2000/svg">
<path d="M13.972 20.976H6.636L5.46 24.448H0.448L7.56 4.79203H13.104L20.216 24.448H15.148L13.972 20.976ZM12.74 17.28L10.304 10.084L7.896 17.28H12.74ZM20.3085 16.608C20.3085 15.0027 20.6072 13.5934 21.2045 12.38C21.8205 11.1667 22.6512 10.2334 23.6965 9.58003C24.7419 8.92669 25.9085 8.60003 27.1965 8.60003C28.2232 8.60003 29.1565 8.81469 29.9965 9.24403C30.8552 9.67336 31.5272 10.252 32.0125 10.98V3.72803H36.8005V24.448H32.0125V22.208C31.5645 22.9547 30.9205 23.552 30.0805 24C29.2592 24.448 28.2979 24.672 27.1965 24.672C25.9085 24.672 24.7419 24.3454 23.6965 23.692C22.6512 23.02 21.8205 22.0774 21.2045 20.864C20.6072 19.632 20.3085 18.2134 20.3085 16.608ZM32.0125 16.636C32.0125 15.4414 31.6765 14.4987 31.0045 13.808C30.3512 13.1174 29.5485 12.772 28.5965 12.772C27.6445 12.772 26.8325 13.1174 26.1605 13.808C25.5072 14.48 25.1805 15.4134 25.1805 16.608C25.1805 17.8027 25.5072 18.7547 26.1605 19.464C26.8325 20.1547 27.6445 20.5 28.5965 20.5C29.5485 20.5 30.3512 20.1547 31.0045 19.464C31.6765 18.7734 32.0125 17.8307 32.0125 16.636ZM82.4412 11.036C82.9079 10.308 83.5519 9.72003 84.3732 9.27203C85.1945 8.82403 86.1559 8.60003 87.2572 8.60003C88.5452 8.60003 89.7119 8.92669 90.7572 9.58003C91.8025 10.2334 92.6239 11.1667 93.2212 12.38C93.8372 13.5934 94.1452 15.0027 94.1452 16.608C94.1452 18.2134 93.8372 19.632 93.2212 20.864C92.6239 22.0774 91.8025 23.02 90.7572 23.692C89.7119 24.3454 88.5452 24.672 87.2572 24.672C86.1745 24.672 85.2132 24.448 84.3732 24C83.5519 23.552 82.9079 22.9734 82.4412 22.264V31.896H77.6532V8.82403H82.4412V11.036ZM89.2732 16.608C89.2732 15.4134 88.9372 14.48 88.2652 13.808C87.6119 13.1174 86.7999 12.772 85.8292 12.772C84.8772 12.772 84.0652 13.1174 83.3932 13.808C82.7399 14.4987 82.4132 15.4414 82.4132 16.636C82.4132 17.8307 82.7399 18.7734 83.3932 19.464C84.0652 20.1547 84.8772 20.5 85.8292 20.5C86.7812 20.5 87.5932 20.1547 88.2652 19.464C88.9372 18.7547 89.2732 17.8027 89.2732 16.608ZM104.245 20.388V24.448H101.809C100.073 24.448 98.7198 24.028 97.7491 23.188C96.7784 22.3294 96.2931 20.9387 96.2931 19.016V12.8H94.3891V8.82403H96.2931V5.01603H101.081V8.82403H104.217V12.8H101.081V19.072C101.081 19.5387 101.193 19.8747 101.417 20.08C101.641 20.2854 102.014 20.388 102.537 20.388H104.245ZM110.58 3.72803V24.448H105.792V3.72803H110.58ZM128.89 8.82403L119.09 31.868H113.938L117.522 23.916L111.166 8.82403H116.514L120.126 18.596L123.71 8.82403H128.89Z" fill="currentColor"/>
<path d="M66.7504 17.7943C66.1919 16.0279 64.9845 14.4702 63.3135 13.3601C61.6425 12.25 59.6001 11.6488 57.4998 11.6488C55.3994 11.6488 53.3571 12.25 51.6861 13.3601C50.015 14.4702 48.8077 16.0279 48.2491 17.7943L46.9181 22.0036C46.6791 22.7594 46.6435 23.5531 46.8139 24.3229C46.9844 25.0927 47.3563 25.8177 47.9008 26.4415C48.4452 27.0652 49.1475 27.5708 49.9527 27.9189C50.758 28.2669 51.6445 28.448 52.5432 28.448H62.4564C63.355 28.448 64.2416 28.2669 65.0468 27.9189C65.8521 27.5708 66.5543 27.0652 67.0988 26.4415C67.6432 25.8177 68.0152 25.0927 68.1856 24.3229C68.3561 23.5531 68.3204 22.7594 68.0814 22.0036L66.7504 17.7943ZM65.2419 25.2076C64.9166 25.5832 64.4956 25.8876 64.0121 26.0966C63.5286 26.3056 62.996 26.4135 62.4564 26.4118H52.5432C52.004 26.4118 51.472 26.3031 50.9889 26.0943C50.5057 25.8855 50.0844 25.5821 49.7577 25.2078C49.431 24.8336 49.2078 24.3985 49.1056 23.9367C49.0033 23.4748 49.0247 22.9986 49.1681 22.5451L50.4991 18.3358C50.9218 16.9991 51.8355 15.8202 53.1001 14.9801C54.3647 14.14 55.9103 13.6851 57.4998 13.6851C59.0893 13.6851 60.6349 14.14 61.8994 14.9801C63.164 15.8202 64.0777 16.9991 64.5004 18.3358L65.8314 22.5451C65.9769 22.9984 65.9994 23.475 65.897 23.9372C65.7947 24.3994 65.5704 24.8344 65.2419 25.2078V25.2076Z" fill="currentColor" stroke="currentColor" stroke-width="0.896"/>
<path d="M49.4838 13.0685C49.6868 11.9613 49.4175 10.776 48.7252 9.73009C48.0328 8.68421 46.9907 7.8881 45.7903 7.48791C44.5048 7.05959 43.1936 7.12781 42.097 7.67989C39.9171 8.77795 39.3434 11.4842 40.8185 13.7126C41.5106 14.7585 42.5528 15.5548 43.7532 15.9548C44.285 16.1356 44.8502 16.2299 45.4209 16.233C46.1318 16.2352 46.8308 16.073 47.4465 15.7628C48.5424 15.2106 49.266 14.2538 49.4838 13.0685ZM47.1789 12.7466C47.0746 13.3148 46.7551 13.7597 46.2793 13.9993C45.8035 14.239 45.2022 14.2578 44.5858 14.0526C43.8847 13.819 43.2645 13.3366 42.8396 12.6945C42.0226 11.46 42.2168 9.97101 43.2641 9.44336C43.5274 9.31302 43.8255 9.24588 44.1282 9.24877C44.4121 9.25133 44.6932 9.29914 44.9574 9.38984C45.6586 9.62357 46.2787 10.1058 46.7037 10.748C47.1286 11.3901 47.2973 12.1001 47.1789 12.7466Z" fill="currentColor" stroke="currentColor" stroke-width="0.896"/>
<path d="M49.7363 8.85004C50.565 9.42802 51.5114 9.72901 52.4685 9.72894C52.7551 9.72886 53.041 9.70196 53.3211 9.6487C55.7808 9.18221 57.2723 6.75701 56.6457 4.24254C56.3517 3.0624 55.6371 2.02702 54.6334 1.32699C53.5586 0.577386 52.2855 0.293645 51.0486 0.528325C48.5889 0.994758 47.0975 3.41995 47.724 5.93442C48.018 7.11463 48.7327 8.15001 49.7363 8.85004ZM51.5443 2.51814C51.6577 2.49681 51.7735 2.48614 51.8895 2.48632C52.3233 2.48632 52.7696 2.6344 53.1759 2.91782C53.7621 3.32667 54.1844 3.95085 54.3649 4.67544C54.712 6.06869 54.007 7.43509 52.8253 7.6592C52.2884 7.76102 51.709 7.61924 51.1938 7.25991C50.6076 6.851 50.1854 6.22682 50.0049 5.50229C49.6577 4.10866 50.3627 2.74226 51.5443 2.51814Z" fill="currentColor" stroke="currentColor" stroke-width="0.896"/>
<path d="M72.9027 7.67989C71.8065 7.12781 70.4947 7.05959 69.2094 7.48791C68.009 7.88797 66.9668 8.68421 66.2747 9.73009C65.5825 10.776 65.3132 11.9615 65.5161 13.0685C65.7336 14.2538 66.457 15.2106 67.5534 15.7628C68.1691 16.073 68.868 16.2352 69.579 16.233C70.1497 16.2299 70.7149 16.1356 71.2466 15.9548C72.447 15.5548 73.4893 14.7585 74.1814 13.7126C75.6563 11.4842 75.0826 8.77795 72.9027 7.67989ZM72.1601 12.6945C71.7352 13.3366 71.115 13.819 70.4139 14.0526C69.7978 14.258 69.1964 14.2391 68.7206 13.9993C68.2448 13.7595 67.9255 13.3148 67.821 12.7466C67.7024 12.1001 67.871 11.3903 68.2961 10.7485C68.7211 10.1067 69.3411 9.62414 70.0423 9.39042C70.3065 9.29963 70.5875 9.25174 70.8715 9.24909C71.1742 9.2462 71.4724 9.31334 71.7356 9.44368C72.7829 9.97088 72.9773 11.4597 72.1601 12.6945Z" fill="currentColor" stroke="currentColor" stroke-width="0.896"/>
<path d="M61.6785 9.6487C61.9586 9.70196 62.2445 9.72886 62.5311 9.72894C63.4881 9.72894 64.4349 9.42802 65.2633 8.85004C66.2669 8.15007 66.9816 7.11463 67.2756 5.93449C67.9021 3.42001 66.4107 0.99482 63.951 0.528388C62.7141 0.293835 61.441 0.577385 60.3662 1.32705C59.3625 2.02702 58.6479 3.06246 58.3539 4.24254C57.7274 6.75701 59.2188 9.1822 61.6785 9.6487ZM60.6348 4.67512C60.8152 3.95053 61.2375 3.32609 61.8237 2.9175C62.2301 2.63408 62.6763 2.486 63.1101 2.486C63.2262 2.48582 63.3419 2.49649 63.4553 2.51782C64.6369 2.74194 65.342 4.10865 64.9948 5.50159C64.8142 6.22618 64.392 6.85062 63.8059 7.25927C63.2909 7.61854 62.7118 7.76032 62.1745 7.65857C60.9926 7.43477 60.2876 6.06818 60.6348 4.67512Z" fill="currentColor" stroke="currentColor" stroke-width="0.896"/>
</svg>
